inDegrees=yes
name=ik_S52_A02_T02
DataType=double
version=3
OpenSimVersion=4.3-2021-08-27-4bc7ad9
endheader
time	pelvis_tilt	pelvis_list	pelvis_rotation	pelvis_tx	pelvis_ty	pelvis_tz	hip_flexion_r	hip_adduction_r	hip_rotation_r	knee_angle_r	knee_angle_r_beta	ankle_angle_r	subtalar_angle_r	mtp_angle_r	hip_flexion_l	hip_adduction_l	hip_rotation_l	knee_angle_l	knee_angle_l_beta	ankle_angle_l	subtalar_angle_l	mtp_angle_l	lumbar_extension	lumbar_bending	lumbar_rotation	arm_flex_r	arm_add_r	arm_rot_r	elbow_flex_r	pro_sup_r	wrist_flex_r	wrist_dev_r	arm_flex_l	arm_add_l	arm_rot_l	elbow_flex_l	pro_sup_l	wrist_flex_l	wrist_dev_l
49.74000000000218	1.199446309469695	1.421152942287534	86.37829374966253	0	0.9399999999999999	0	-6.922625114917442	2.248868678817355	-5.269505320390854	10.47263308543677	0.1827819286941643	0	0	0	12.17917847389884	1.621591519076056	-2.872683148881845	1.583911807371442	0.02764447609984585	0	0	0	0	0	0	37.93930240423164	-37.93930240423163	4.817217915222908	82.59770112326379	85.18278235151298	0	0	37.93930240423164	-37.93930240423163	4.817217915222908	82.59770112326379	85.18278235147856	0	0
49.76000000000218	1.332470601086857	1.327182902477998	86.01907216297614	0	0.9399999999999999	0	-6.408239027353624	2.855301390638958	-4.959725284192873	8.927605459702445	0.1558161095908296	0	0	0	13.00168730386482	1.053625255246726	-4.737566807396574	1.610851034062278	0.02811465430354208	0	0	0	0	0	0	37.94258704163868	-37.94258704163867	4.817388699395898	82.5999471503534	85.18261156734779	0	0	37.94258704163868	-37.94258704163867	4.817388699395898	82.5999471503534	85.18261156731337	0	0
49.78000000000218	1.58000170808959	1.472985254161173	85.83752769546003	0	0.9399999999999999	0	-6.277449096034824	3.231885699587288	-4.704233450135382	8.213957766158019	0.1433606076392159	0	0	0	13.12656048411471	0.7863403074320892	-5.704155071181891	0.1199871921310586	0.002094171562910003	0	0	0	0	0	0	37.94416568693183	-37.94416568693182	4.817470783839131	82.60102666405602	85.18252948290835	0	0	37.94416568693183	-37.94416568693182	4.817470783839131	82.60102666405602	85.18252948287395	0	0
49.80000000000219	1.993971995929022	1.637272093831074	85.82485778141044	0	0.9399999999999999	0	-6.143128280649079	3.727423996037948	-4.468433871904894	7.575094914209544	0.1322103474040339	0	0	0	13.24233479559082	0.4981694981771555	-6.347757567194826	-0.4994303435106442	-0.008716703878627037	0	0	0	0	0	0	37.94574216450882	-37.94574216450881	4.817552779025501	82.60210500402609	85.18244748772572	0	0	37.94574216450882	-37.94574216450881	4.817552779025501	82.60210500402609	85.18244748769135	0	0
49.82000000000219	2.369039170930817	1.550902948666896	86.09374212866589	0	0.9399999999999999	0	-5.688331217311282	4.250810166487731	-4.628218789403892	6.99510574569887	0.1220876267876185	0	0	0	13.76000065025363	-0.02530062426527353	-7.413786104262341	-0.6093424475584166	-0.01063503198205525	0	0	0	0	0	0	37.94755280112283	-37.94755280112282	4.817646955308394	82.60334354017404	85.18235331144716	0	0	37.94755280112283	-37.94755280112282	4.817646955308394	82.60334354017404	85.18235331141278	0	0
49.84000000000219	2.373026677253281	1.556563252893928	86.09539689404949	0	0.9399999999999999	0	-5.305425506349901	4.388733917408763	-4.513913738050434	6.455296650699082	0.1126661807476613	0	0	0	14.36999801035548	-0.8750210197203939	-9.680283805411813	0.02870684860031018	0.0005010290259469382	0	0	0	0	0	0	37.96261324961738	-37.96261324961736	4.818329891783277	82.61232260737533	85.18167037500284	0	0	37.96261324961738	-37.96261324961736	4.818329891783277	82.61232260737533	85.1816703749686	0	0
49.8600000000022	2.542079851978393	1.3298474131868	86.63168170629532	0	0.9399999999999999	0	-4.672888106529289	4.78621004906966	-4.728246078646194	5.931949159114282	0.1035320438874532	0	0	0	15.33902974130769	-2.011413544807374	-11.31568028082649	1.367478457777528	0.02386700153831212	0	0	0	0	0	0	37.98388564304259	-37.98388564304258	4.819282882848158	82.62485196361109	85.18071738398049	0	0	37.98388564304259	-37.98388564304258	4.819282882848158	82.62485196361109	85.18071738394647	0	0
49.8800000000022	2.280172417205569	1.613089374824681	88.11874934650288	0	0.9399999999999999	0	-4.410028449840241	4.776677279041927	-5.895953531983098	5.609324453912724	0.09790118053340996	0	0	0	14.98719390910327	-1.427507945916146	-10.17318375386069	1.660417317529064	0.02897974914801432	0	0	0	0	0	0	37.98443735539777	-37.98443735539776	4.819311229320303	82.62522474404652	85.18068903750964	0	0	37.98443735539777	-37.98443735539776	4.819311229320303	82.62522474404652	85.18068903747563	0	0
